PathFileType	4	(X/Y/Z)	/Users/itak/Documents/Research/Walk-IL/dataset/trc/00404_00012.trc
DataRate	CameraRate	NumFrames	NumMarkers	Units	OrigDataRate	OrigDataStartFrame	OrigNumFrames
100.000000	100.000000	4	54	mm	100.000000	424	566
Frame#	Time	RPSI			LPSI			L3			STRN			T10			C7			CLAV			RBAK			LBAK			LSHO			LUPA			LAEL			LAOL			LWTS			LWPS			LFRA			LHPS			RSHO			RUPA			RAEL			RAOL			RWTS			RWPS			RFRA			RIFD			RHPS			RBHD			LFHD			RFHD			LBHD			LHIP			RHIP			RASI			LASI			LKNE			LTHI			LANK			LTIP			LTOE			LMT1			LMT5			LHEE			RKNE			RTHI			RANK			RTIP			RTOE			RMT1			RMT5			RHEE			LIFD			LHTS			RHTS			*53			
		X1	Y1	Z1	X2	Y2	Z2	X3	Y3	Z3	X4	Y4	Z4	X5	Y5	Z5	X6	Y6	Z6	X7	Y7	Z7	X8	Y8	Z8	X9	Y9	Z9	X10	Y10	Z10	X11	Y11	Z11	X12	Y12	Z12	X13	Y13	Z13	X14	Y14	Z14	X15	Y15	Z15	X16	Y16	Z16	X17	Y17	Z17	X18	Y18	Z18	X19	Y19	Z19	X20	Y20	Z20	X21	Y21	Z21	X22	Y22	Z22	X23	Y23	Z23	X24	Y24	Z24	X25	Y25	Z25	X26	Y26	Z26	X27	Y27	Z27	X28	Y28	Z28	X29	Y29	Z29	X30	Y30	Z30	X31	Y31	Z31	X32	Y32	Z32	X33	Y33	Z33	X34	Y34	Z34	X35	Y35	Z35	X36	Y36	Z36	X37	Y37	Z37	X38	Y38	Z38	X39	Y39	Z39	X40	Y40	Z40	X41	Y41	Z41	X42	Y42	Z42	X43	Y43	Z43	X44	Y44	Z44	X45	Y45	Z45	X46	Y46	Z46	X47	Y47	Z47	X48	Y48	Z48	X49	Y49	Z49	X50	Y50	Z50	X51	Y51	Z51	X52	Y52	Z52	X53	Y53	Z53	X54	Y54	Z54	

425	4.24	657.1890258789062	924.5632934570312	-553.8955078125	729.6089477539062	931.3357543945312	-662.946533203125	694.878662109375	1012.450622558594	-607.0607299804688	875.1034545898438	1159.735595703125	-452.3912658691406	697.781494140625	1112.147216796875	-626.2048950195312	737.7235107421875	1360.31640625	-600.4932861328125	836.013427734375	1279.39697265625	-485.2373046875	659.948486328125	1213.459228515625	-599.221435546875	800.76220703125	1330.488037109375	-682.9783325195312	896.9761352539062	1348.227172851562	-653.3817138671875	931.0702514648438	1231.698120117188	-722.0174560546875	982.595703125	1049.499145507812	-730.4472045898438	910.2953491210938	1005.290954589844	-716.6478271484375	1135.852661132812	965.2780151367188	-609.1594848632812	1147.714477539062	924.5106201171875	-679.5045166015625	1044.742553710938	985.4361572265625	-714.89208984375	1216.370483398438	886.4830322265625	-644.8366088867188	653.1334838867188	1331.322021484375	-463.6188659667969	594.900146484375	1273.605346679688	-454.613525390625	523.0108642578125	1026.1630859375	-500.830810546875	605.4195556640625	1013.846862792969	-547.2626953125	534.109619140625	782.4527587890625	-455.7657775878906	465.329345703125	796.7080078125	-476.511474609375	499.0359191894531	963.1396484375	-489.0711364746094	495.7182312011719	609.541748046875	-482.7060241699219	445.09033203125	694.0723876953125	-480.7970886230469	704.834228515625	1545.477905273438	-510.8345947265625	900.7330322265625	1542.323852539062	-476.7528991699219	796.44921875	1544.207763671875	-412.5542907714844	831.1819458007812	1540.41796875	-608.16064453125	865.2529296875	926.301513671875	-710.0615844726562	666.6615600585938	900.2738037109375	-412.6378173828125	807.210205078125	918.5983276367188	-388.2882995605469	940.4673461914062	913.9251098632812	-622.1070556640625	820.7958984375	444.1474914550781	-735.4295043945312	848.482177734375	584.3408203125	-724.2999877929688	574.1677856445312	68.35709381103516	-861.1814575195312	699.46728515625	252.3850402832031	-815.9871215820312	738.3544921875	32.11888122558594	-714.6756591796875	655.164306640625	46.52629470825195	-720.7719116210938	695.1121215820312	41.57882690429688	-815.349609375	516.0209350585938	81.95485687255859	-828.056640625	860.0202026367188	446.0936584472656	-341.6592407226562	776.9500122070312	695.115234375	-346.2072448730469	986.9755859375	38.50592422485352	-334.3887329101562	913.4526977539062	333.1397094726562	-325.1340637207031	1140.383666992188	71.41942596435547	-236.7264862060547	1121.675415039062	63.72775268554688	-311.6171264648438	1033.835205078125	44.26185607910156	-264.7107543945312	987.5584106445312	19.0125732421875	-422.4622497558594	1277.193603515625	862.4341430664062	-564.7689819335938	1225.945434570312	925.432861328125	-595.2994384765625	508.6963195800781	675.007568359375	-452.4155883789062	nan	nan	nan	
426	4.25	666.5739135742188	925.1394653320312	-546.2831420898438	739.6114501953125	930.7671508789062	-655.1809692382812	704.8192138671875	1012.413452148438	-599.652587890625	883.2307739257812	1160.175415039062	-445.1049499511719	706.9877319335938	1111.906860351562	-619.5390014648438	745.88037109375	1360.160278320312	-594.2296142578125	843.8564453125	1279.625	-478.318603515625	668.6607666015625	1212.91650390625	-593.0797729492188	809.3341674804688	1330.377197265625	-676.3511352539062	905.4826049804688	1348.41455078125	-646.3275756835938	939.7340087890625	1231.7451171875	-714.59033203125	990.98779296875	1049.103393554688	-722.694580078125	918.0330200195312	1005.231140136719	-709.1142578125	1142.221069335938	961.3333740234375	-600.5098266601562	1153.91796875	920.8397827148438	-671.0237426757812	1052.474853515625	983.9954223632812	-706.92919921875	1221.521728515625	881.2432250976562	-635.9710083007812	660.714111328125	1330.920532226562	-457.7261352539062	602.7022705078125	1272.782592773438	-448.8547973632812	532.4660034179688	1024.8134765625	-494.6244506835938	615.0804443359375	1012.945190429688	-540.8580932617188	544.8230590820312	781.0963134765625	-449.9598693847656	475.9556274414062	795.0646362304688	-470.4960021972656	508.8886413574219	961.7146606445312	-482.9258422851562	507.6097717285156	607.9140014648438	-476.7389526367188	456.477294921875	692.07568359375	-475.0620727539062	712.1834716796875	1545.573974609375	-505.6596984863281	907.8570556640625	1542.903442382812	-470.6822509765625	803.2692260742188	1544.92333984375	-406.981201171875	838.9185180664062	1540.251220703125	-602.392333984375	875.4469604492188	925.0576782226562	-701.4876708984375	675.0213012695312	901.548095703125	-404.8925476074219	815.3705444335938	919.4428100585938	-380.070068359375	950.04541015625	913.1902465820312	-613.0150146484375	832.2439575195312	443.4107666015625	-726.5901489257812	859.5065307617188	582.9655151367188	-715.033203125	577.6151123046875	74.17990875244141	-860.7760620117188	706.5653076171875	256.3862915039062	-811.8825073242188	738.7117919921875	32.25058364868164	-714.9393920898438	656.4111938476562	47.47121429443359	-720.802001953125	697.7938842773438	43.25392532348633	-814.454833984375	520.4964599609375	90.57112884521484	-827.1052856445312	867.15673828125	446.2157592773438	-334.8945617675781	784.389892578125	695.5403442382812	-337.822509765625	988.9608154296875	38.09535980224609	-333.3478393554688	920.4708251953125	332.3816528320312	-319.6925964355469	1144.4853515625	62.43989944458008	-234.9152069091797	1124.978515625	57.84003067016602	-310.3879089355469	1036.435180664062	41.26861572265625	-263.9364013671875	989.0173950195312	20.4702320098877	-421.7696838378906	1281.346313476562	855.8726806640625	-555.7079467773438	1231.429809570312	919.8453369140625	-586.1912841796875	519.9636840820312	673.50634765625	-446.5202026367188	nan	nan	nan	
427	4.26	675.8345336914062	926.0597534179688	-538.5910034179688	749.6146240234375	930.4618530273438	-647.2734375	714.8320922851562	1012.7255859375	-592.0188598632812	891.3252563476562	1160.998657226562	-437.7505798339844	716.1961059570312	1111.945068359375	-612.6972045898438	753.9982299804688	1360.276977539062	-587.9381103515625	851.6576538085938	1280.22314453125	-471.364990234375	677.3115234375	1212.682250976562	-586.8290405273438	817.863037109375	1330.578369140625	-669.6909790039062	913.9173583984375	1348.934814453125	-639.2598266601562	948.265625	1232.12158203125	-707.1605834960938	999.2757568359375	1049.007568359375	-714.9525146484375	925.6388549804688	1005.599792480469	-701.5679321289062	1148.307006835938	957.0121459960938	-592.0239868164062	1159.785400390625	917.0296630859375	-662.8726806640625	1060.01806640625	982.6411743164062	-699.0346069335938	1226.005737304688	875.3246459960938	-627.3624877929688	668.2542724609375	1330.887084960938	-451.8064880371094	610.5	1272.347778320312	-443.0009460449219	541.9853515625	1023.795776367188	-488.0824890136719	624.7333984375	1012.400329589844	-534.2014770507812	556.0675048828125	780.1852416992188	-443.5766906738281	487.0567321777344	793.6237182617188	-463.6969604492188	518.8709716796875	960.5654907226562	-476.3282775878906	520.0310668945312	606.732177734375	-470.1964721679688	468.3940734863281	690.5252685546875	-468.7527465820312	719.4620361328125	1545.944091796875	-500.4010314941406	914.9121704101562	1543.796630859375	-464.5346069335938	810.0255737304688	1545.8779296875	-401.3294372558594	846.5941162109375	1540.428466796875	-596.5372314453125	885.65673828125	924.0595092773438	-692.612548828125	683.1470336914062	903.1431884765625	-397.0833129882812	823.2639770507812	920.6676635742188	-371.6338806152344	959.7559814453125	913.0853881835938	-602.8668212890625	844.8602905273438	442.8561706542969	-717.3301391601562	871.2384033203125	581.6860961914062	-705.3059692382812	582.20654296875	80.931396484375	-860.2539672851562	714.894775390625	260.8116455078125	-807.3822021484375	739.0950927734375	32.48782348632812	-715.25390625	658.001953125	48.59458541870117	-720.778564453125	700.8184814453125	45.11310195922852	-813.5052490234375	526.3478393554688	100.2550964355469	-825.999267578125	874.2958374023438	446.6642456054688	-328.0776977539062	791.6217041015625	696.1668701171875	-329.4361572265625	990.9136352539062	37.9874267578125	-332.316162109375	927.510498046875	331.9652404785156	-314.2407531738281	1148.564086914062	54.20199203491211	-233.6822662353516	1128.06298828125	52.46890258789062	-309.5860595703125	1039.040161132812	38.95272827148438	-263.3312072753906	990.2223510742188	22.07106399536133	-421.0252380371094	1284.699829101562	848.410400390625	-546.9776611328125	1236.417358398438	913.526611328125	-577.3174438476562	531.7609252929688	672.4512939453125	-440.0504760742188	nan	nan	nan	
428	4.27	684.9201049804688	927.2564697265625	-530.9013061523438	759.5613403320312	930.3902587890625	-639.27587890625	724.8654174804688	1013.351806640625	-584.20166015625	899.3622436523438	1162.169799804688	-430.3279724121094	725.3897094726562	1112.22314453125	-605.7096557617188	762.0934448242188	1360.627685546875	-581.6361083984375	859.4075927734375	1281.15869140625	-464.3916015625	685.8944702148438	1212.731567382812	-580.4984130859375	826.366943359375	1331.041748046875	-662.998046875	922.2935180664062	1349.742309570312	-632.1746215820312	956.6973266601562	1232.8056640625	-699.7359619140625	1007.447326660156	1049.19091796875	-707.23388671875	933.1248168945312	1006.387390136719	-694.0206298828125	1154.097290039062	952.3440551757812	-583.7228393554688	1165.284912109375	913.0591430664062	-655.0430908203125	1067.35888671875	981.3554077148438	-691.2105102539062	1229.8291015625	868.8309326171875	-619.0728759765625	675.752197265625	1331.203857421875	-445.8894958496094	618.2800903320312	1272.298217773438	-437.0814819335938	551.5504150390625	1023.110900878906	-481.2347717285156	634.3565063476562	1012.213073730469	-527.3062133789062	567.7578735351562	779.7021484375	-436.5532531738281	498.5656433105469	792.4000854492188	-456.1264953613281	528.9481201171875	959.6984252929688	-469.3087768554688	532.89697265625	605.9785766601562	-463.0201110839844	480.7561645507812	689.403076171875	-461.8092956542969	726.6531372070312	1546.515625	-495.0823364257812	921.8875122070312	1544.963989257812	-458.3056945800781	816.7046508789062	1547.021118164062	-395.6097412109375	854.21435546875	1540.90576171875	-590.6023559570312	895.8067016601562	923.2843627929688	-683.4913940429688	690.9948120117188	904.9921875	-389.2994079589844	830.8538208007812	922.2403564453125	-363.0325012207031	969.4739990234375	913.5324096679688	-591.8629760742188	858.7117919921875	442.4351196289062	-707.6572875976562	883.7072143554688	580.5095825195312	-695.1621704101562	588.2169189453125	88.65404510498047	-859.6243896484375	724.7164916992188	265.5216064453125	-802.4352416992188	739.5131225585938	32.81777572631836	-715.58984375	660.0249633789062	49.94938659667969	-720.703369140625	704.2674560546875	47.20251846313477	-812.5094604492188	533.8206176757812	110.9484024047852	-824.7935180664062	881.530029296875	447.4047546386719	-321.2110290527344	798.7332153320312	697.0065307617188	-321.1195678710938	992.7676391601562	38.09318542480469	-331.3309326171875	934.5046997070312	331.8305053710938	-308.8193359375	1152.37060546875	47.04024124145508	-232.9297790527344	1130.802978515625	47.78810119628906	-309.1228332519531	1041.50341796875	37.30572509765625	-262.8636169433594	991.1959228515625	23.63076210021973	-420.2525024414062	1287.216552734375	840.0846557617188	-538.6165771484375	1240.88916015625	906.5289916992188	-568.7174682617188	544.0026245117188	671.8241577148438	-432.9469299316406	nan	nan	nan	
